<svg width="40" height="40" xmlns="http://www.w3.org/2000/svg"><path d="M15.954 30v-8.928H8.138V30H4V10h4.138v7.625h7.816V10h4.152v20h-4.152Zm15.699-15.672c-.462-.551-1.122-.827-1.981-.827-1.176 0-1.977.438-2.402 1.316-.244.506-.389 1.311-.434 2.415h-3.759c.064-1.673.367-3.026.91-4.057 1.03-1.963 2.862-2.944 5.495-2.944 2.08 0 3.736.579 4.966 1.736 1.23 1.15 1.845 2.673 1.845 4.573 0 1.456-.434 2.75-1.303 3.88-.57.751-1.506 1.588-2.808 2.51l-1.547 1.1c-.968.687-1.633 1.185-1.995 1.492a4.448 4.448 0 0 0-.895 1.072h8.589V30H22.86c.036-1.411.34-2.7.91-3.867.551-1.312 1.854-2.7 3.907-4.166 1.782-1.275 2.935-2.189 3.46-2.74.805-.86 1.208-1.8 1.208-2.823 0-.832-.231-1.524-.692-2.076Z"/></svg>