<svg width="40" height="40" xmlns="http://www.w3.org/2000/svg"><path d="M12.297 8.81v3.244H35V8.811H12.297Zm0 12.974H35V18.54H12.297v3.243Zm0 9.73H35V28.27H12.297v3.244Zm-4.865-4.055C6.135 27.46 5 28.595 5 29.892s1.135 2.432 2.432 2.432c1.298 0 2.433-1.135 2.433-2.432s-.973-2.433-2.433-2.433ZM7.432 8C6.135 8 5 9.135 5 10.432c0 1.298 1.135 2.433 2.432 2.433 1.298 0 2.433-1.135 2.433-2.433C9.865 9.135 8.892 8 7.432 8Zm0 9.73C6.135 17.73 5 18.865 5 20.162s1.135 2.433 2.432 2.433c1.298 0 2.433-1.136 2.433-2.433s-.973-2.432-2.433-2.432Z"/></svg>