<svg width="40" height="40" xmlns="http://www.w3.org/2000/svg"><path fill-rule="evenodd" clip-rule="evenodd" d="m26.303 10.334-6.252 6.253c-.58.58-1.499.6-2.053.047-.553-.554-.532-1.473.048-2.052l6.308-6.308.026-.025c.525-.477 1.5-1.138 2.796-1.257 1.363-.126 2.815.372 4.195 1.751 1.333 1.334 1.943 2.723 1.95 4.08.006 1.336-.574 2.413-1.177 3.12l-.04.046-6.326 6.325c-.58.58-1.498.601-2.052.048-.554-.554-.533-1.473.047-2.053l6.233-6.233a1.75 1.75 0 0 0 .411-1.106c-.002-.439-.188-1.169-1.146-2.127-.911-.912-1.587-.995-1.962-.96-.427.039-.792.263-1.006.451Zm-.938 4.702c.554.553.533 1.472-.047 2.052l-8.248 8.248c-.58.58-1.5.601-2.053.048-.554-.554-.532-1.473.047-2.053l8.249-8.248c.58-.58 1.498-.601 2.052-.047Zm-8.593 3.1c.554.554.532 1.473-.047 2.053l-6.253 6.252c-.188.214-.412.579-.452 1.006-.034.375.05 1.05.96 1.962.959.958 1.689 1.144 2.128 1.146.438.002.818-.177 1.106-.411l6.233-6.233c.58-.58 1.499-.601 2.052-.047.554.553.533 1.472-.047 2.052l-6.326 6.326-.046.04c-.706.603-1.783 1.183-3.12 1.176-1.357-.007-2.745-.616-4.079-1.95-1.38-1.38-1.877-2.831-1.752-4.195.12-1.296.78-2.27 1.258-2.795l.025-.027 6.307-6.308c.58-.58 1.5-.6 2.053-.047Z"/></svg>