<svg width="40" height="40" xmlns="http://www.w3.org/2000/svg"><path d="M15.669 29.523v-8.715h-7.63v8.715H4V10h4.04v7.444h7.629V10h4.053v19.523h-4.053Zm11.086-15.377c-.424.565-.627 1.32-.61 2.265h-3.523a9.472 9.472 0 0 1 .49-2.716c.31-.75.795-1.443 1.458-2.08a5.076 5.076 0 0 1 1.761-1.032c.68-.239 1.515-.358 2.503-.358 1.837 0 3.316.477 4.438 1.43 1.13.945 1.695 2.217 1.695 3.815 0 1.13-.336 2.084-1.007 2.861-.424.486-.865.817-1.324.994.344 0 .839.295 1.483.887.963.892 1.444 2.11 1.444 3.655 0 1.625-.565 3.056-1.696 4.292C32.748 29.386 31.082 30 28.874 30c-2.72 0-4.61-.887-5.669-2.662-.556-.945-.865-2.181-.927-3.709h3.709c0 .768.123 1.404.37 1.907.46.928 1.294 1.391 2.504 1.391.742 0 1.386-.252 1.934-.755.556-.512.834-1.245.834-2.198 0-1.263-.512-2.107-1.536-2.53-.583-.239-1.501-.358-2.755-.358v-2.702c1.227-.018 2.084-.137 2.57-.358.838-.37 1.258-1.12 1.258-2.251 0-.733-.217-1.33-.65-1.788-.423-.46-1.024-.689-1.8-.689-.893 0-1.546.283-1.961.848Z"/></svg>