<svg width="40" height="40" xmlns="http://www.w3.org/2000/svg"><path d="M6.376 29.018c-.13.173-.193.405-.187.696H5.106c.01-.293.06-.572.15-.835a1.89 1.89 0 0 1 .448-.639 1.56 1.56 0 0 1 .542-.317c.209-.074.465-.11.769-.11.564 0 1.019.146 1.364.44.347.29.52.68.52 1.172a1.3 1.3 0 0 1-.309.879c-.13.15-.266.25-.407.305.106 0 .258.091.456.273.296.274.444.648.444 1.123 0 .5-.174.94-.521 1.32-.345.377-.856.565-1.535.565-.836 0-1.416-.273-1.742-.818-.171-.29-.266-.67-.285-1.14h1.14c0 .236.038.432.114.586.14.285.397.428.77.428a.85.85 0 0 0 .593-.232c.171-.158.257-.383.257-.676 0-.388-.158-.647-.472-.777-.18-.074-.462-.11-.847-.11v-.83c.377-.006.64-.043.79-.11.257-.115.386-.345.386-.693a.769.769 0 0 0-.2-.55c-.13-.14-.314-.21-.553-.21-.274 0-.475.086-.602.26Zm1.302-10.397c-.138-.165-.336-.248-.594-.248-.353 0-.593.132-.72.395-.074.152-.117.393-.13.724H5.105c.019-.502.11-.907.273-1.217.309-.588.858-.883 1.648-.883.624 0 1.12.174 1.49.521.369.345.554.802.554 1.372 0 .437-.13.825-.391 1.164-.171.225-.452.476-.843.753l-.464.33c-.29.206-.49.355-.598.448a1.34 1.34 0 0 0-.269.321h2.577v1.022H5.04c.01-.423.101-.81.272-1.16.166-.394.557-.81 1.173-1.25.534-.383.88-.657 1.038-.822.241-.258.362-.54.362-.847 0-.25-.07-.457-.208-.623Zm3.664-10.084v3.38H35v-3.38H11.342Zm0 13.518H35v-3.38H11.342v3.38Zm0 10.14H35v-3.38H11.342v3.38ZM7.935 12.902H6.746v-4.07H5.358v-.79c.367-.016.623-.04.77-.073a1.09 1.09 0 0 0 .57-.31c.1-.105.176-.247.227-.423A.972.972 0 0 0 6.97 7h.965v5.902Z"/></svg>